PathFileType	4	(X/Y/Z)	C:\Users\dbl\Desktop\20210112\20210112\bx_n_5_901.trc
DataRate	CameraRate	NumFrames	NumMarkers	Units	OrigDataRate	OrigDataStartFrame	OrigNumFrames
50.00	50.00	       5	43	mm	50.00	59	       470
Frame#	Time	Top.Head			R.Acromium			L.Acromium			Sternum			R.ASIS			L.ASIS			V.Sacral			R.Thigh.Upper			R.Thigh.Front			R.Thigh.Rear			R.Knee.Lat			R.Knee.Med			R.Shank.Upper			R.Shank.Front			R.Shank.Rear			R.Ankle.Lat			R.Midfoot.Lat			R.Toe.Lat			R.Toe.Tip			R.Toe.Med			R.Ankle.Med			R.Midfoot.Sup			R.Heel			L.Thigh.Upper			L.Thigh.Front			L.Thigh.Rear			L.Knee.Lat			L.Knee.Med			L.Shank.Upper			L.Shank.Front			L.Shank.Rear			L.Ankle.Lat			L.Midfoot.Lat			L.Toe.Lat			L.Toe.Tip			L.Toe.Med			L.Ankle.Med			L.Midfoot.Sup			L.Heel			origin1 front left			origin2 front right			origin 3 back right			origin 4 back leftt			
		X1	Y1	Z1	X2	Y2	Z2	X3	Y3	Z3	X4	Y4	Z4	X5	Y5	Z5	X6	Y6	Z6	X7	Y7	Z7	X8	Y8	Z8	X9	Y9	Z9	X10	Y10	Z10	X11	Y11	Z11	X12	Y12	Z12	X13	Y13	Z13	X14	Y14	Z14	X15	Y15	Z15	X16	Y16	Z16	X17	Y17	Z17	X18	Y18	Z18	X19	Y19	Z19	X20	Y20	Z20	X21	Y21	Z21	X22	Y22	Z22	X23	Y23	Z23	X24	Y24	Z24	X25	Y25	Z25	X26	Y26	Z26	X27	Y27	Z27	X28	Y28	Z28	X29	Y29	Z29	X30	Y30	Z30	X31	Y31	Z31	X32	Y32	Z32	X33	Y33	Z33	X34	Y34	Z34	X35	Y35	Z35	X36	Y36	Z36	X37	Y37	Z37	X38	Y38	Z38	X39	Y39	Z39	X40	Y40	Z40	X41	Y41	Z41	X42	Y42	Z42	X43	Y43	Z43	

59	1.160	-239.56519	101.40436	1634.59021	-452.16284	-75.28627	1406.08252	-471.04245	279.87067	1418.17554	-512.78821	102.45206	1220.87476	-689.17865	-0.16453	1027.79114	-690.70166	245.18263	1047.53479	-879.66608	99.09066	1087.53503	-763.92029	-66.44968	871.53973	-678.64856	-2.69561	807.47485	-768.46631	-59.25481	754.74475	-768.10529	-32.69483	613.80243	-749.43799	76.55585	568.99103	-769.95148	-30.62984	567.30280	-714.16571	17.88856	524.42218	-801.64166	-44.82484	483.30179	-761.94232	-22.48944	205.55276	-648.48663	-68.19801	161.27798	-605.57477	-72.81935	158.30719	-548.74158	-23.00027	163.54008	-600.60229	28.23667	167.33853	-723.88873	67.01054	218.18130	-675.29767	52.08211	161.25658	-794.33356	36.12137	173.73140	-782.34790	293.98538	872.57947	-678.76733	227.76060	796.87048	-773.45276	282.51004	738.95825	-791.23291	258.27020	635.93402	-747.41309	149.07220	574.66339	-783.35370	253.04155	571.26642	-724.77332	210.76860	537.70184	-812.91882	264.48856	493.96768	-771.57129	230.40173	202.93307	-660.06787	298.67099	156.76410	-623.41064	306.63226	158.80243	-556.36566	253.82291	164.21027	-593.00256	218.27440	174.17986	-717.72382	157.17850	220.03015	-676.15558	173.71658	160.70920	-798.06763	181.35864	182.73921	-528.09705	304.06512	146.51012	-518.00024	-72.80453	143.33115	-875.80542	-78.57580	141.15631	-882.53546	296.26031	144.83827	
60	1.180	-226.99139	100.79780	1615.93250	-442.84705	-75.22332	1391.84924	-461.05820	279.10251	1403.99976	-510.33093	101.80793	1208.07776	-694.93909	-0.42934	1025.60205	-695.75732	244.61951	1045.75757	-884.24652	99.18736	1088.45874	-769.95221	-66.62329	871.11365	-684.10889	-2.84095	807.48083	-773.48163	-59.42204	754.23242	-771.77679	-32.75659	613.46667	-752.79907	76.43564	568.76898	-773.22168	-30.72608	566.97968	-717.16040	17.89186	524.46307	-804.17584	-45.00989	482.73370	-762.11945	-22.69955	205.47998	-648.45490	-68.24894	161.19124	-605.49176	-72.87242	158.25844	-548.76898	-22.89763	163.45773	-600.63403	28.22480	167.35785	-724.18164	66.96918	218.33566	-675.28351	52.02658	161.31006	-794.46228	36.00184	173.65312	-787.62982	294.06830	872.14795	-683.71045	227.49649	797.04639	-777.58020	282.70145	738.30573	-794.59814	258.45145	635.35760	-750.63391	149.08344	574.49359	-786.21484	253.15924	570.87878	-727.46924	210.68590	537.76074	-815.13080	264.88956	493.41440	-771.65900	230.63432	202.89201	-660.01404	298.61688	156.79845	-623.35211	306.58301	158.81128	-556.40387	253.61517	164.07751	-592.96759	218.08846	174.11005	-718.10297	157.27338	220.21370	-676.25964	173.79434	160.87474	-798.22534	181.59029	182.65042	-528.10645	304.08505	146.52246	-518.00525	-72.79005	143.31544	-875.80487	-78.58083	141.14700	-882.54132	296.24432	144.82568	
61	1.200	-215.12567	100.23760	1596.74158	-433.76358	-75.02335	1376.88013	-451.27979	278.36774	1389.08276	-507.96078	101.01326	1194.61328	-700.46124	-0.64218	1023.26086	-700.73987	244.08345	1043.89844	-888.64191	99.27527	1089.40869	-775.79138	-66.90981	870.66003	-689.44806	-3.02652	807.38599	-778.36218	-59.69131	753.70435	-775.41663	-32.84993	613.10406	-756.12860	76.26072	568.52313	-776.46643	-30.85693	566.62988	-720.11151	17.86824	524.48218	-806.69348	-45.23652	482.15421	-762.28882	-22.88928	205.39273	-648.43890	-68.30278	161.09555	-605.40613	-72.94830	158.16660	-548.80273	-22.77955	163.36240	-600.66461	28.19721	167.38258	-724.47467	66.87162	218.47890	-675.26318	51.97734	161.37492	-794.57922	35.88683	173.56924	-792.85718	294.07349	871.68060	-688.65057	227.19102	797.18719	-781.65924	282.83389	737.64514	-797.90131	258.57599	634.75549	-753.84906	149.05759	574.29663	-789.05219	253.25378	570.47308	-730.12360	210.58702	537.82788	-817.31952	265.26532	492.86426	-771.68634	230.84256	202.82942	-659.95575	298.54626	156.84094	-623.28851	306.51538	158.82816	-556.44580	253.39944	163.95244	-592.95154	217.88095	174.03362	-718.44427	157.33493	220.40059	-676.35132	173.88271	161.06384	-798.36749	181.82426	182.56784	-528.11810	304.09906	146.52606	-518.01129	-72.77704	143.30254	-875.81293	-78.59238	141.14250	-882.55200	296.21951	144.79733	
62	1.220	-204.03650	99.68413	1577.16211	-424.94891	-74.65719	1361.20850	-441.75992	277.66684	1373.49170	-505.75085	99.99580	1180.54785	-705.73114	-0.79718	1020.81287	-705.63959	243.66185	1041.99341	-892.82532	99.31538	1090.37415	-781.36353	-67.27460	870.17572	-694.62079	-3.20827	807.20898	-783.04382	-60.04588	753.17548	-778.97144	-32.96701	612.72174	-759.42407	76.03909	568.22961	-779.65485	-31.01668	566.25122	-722.99139	17.81697	524.49408	-809.16357	-45.50686	481.56107	-762.45087	-23.05721	205.28659	-648.43927	-68.35545	161.00018	-605.33221	-73.03477	158.04076	-548.83875	-22.64971	163.26208	-600.68872	28.16535	167.40414	-724.77502	66.70357	218.59714	-675.24255	51.92674	161.45499	-794.68005	35.76706	173.48399	-798.03912	294.04221	871.20496	-693.60413	226.86139	797.26587	-785.72906	282.93423	737.01599	-801.16412	258.64645	634.13495	-757.04401	149.00041	574.07776	-791.87567	253.33159	570.05292	-732.74237	210.49011	537.90393	-819.50378	265.58994	492.31174	-771.67926	231.01538	202.73260	-659.89508	298.46539	156.88527	-623.22168	306.43753	158.84984	-556.49475	253.18672	163.83839	-592.97260	217.67432	173.94621	-718.74243	157.39177	220.58499	-676.42963	173.98605	161.26260	-798.49261	182.05806	182.49435	-528.13226	304.10294	146.51692	-518.01770	-72.76855	143.29327	-875.82550	-78.60593	141.14273	-882.56445	296.19269	144.76192	
63	1.240	-193.76123	99.10554	1557.33008	-416.43048	-74.11791	1344.89709	-432.54111	276.99066	1357.29724	-503.78094	98.69463	1165.99011	-710.75671	-0.91300	1018.31049	-710.43701	243.41942	1040.06213	-896.76459	99.26777	1091.33728	-786.62842	-67.65945	869.65149	-699.58514	-3.34057	806.97339	-787.47614	-60.45377	752.65552	-782.38721	-33.10675	612.32996	-762.68359	75.77859	567.86560	-782.74896	-31.20226	565.84460	-725.77850	17.73764	524.51129	-811.54883	-45.81968	480.95367	-762.60175	-23.20854	205.16087	-648.45111	-68.40427	160.91428	-605.28107	-73.11890	157.89925	-548.87146	-22.51396	163.16985	-600.70355	28.14522	167.41374	-725.08319	66.47148	218.68385	-675.22766	51.86549	161.54993	-794.76617	35.62995	173.40570	-803.18848	294.01221	870.73987	-698.56702	226.52599	797.24683	-789.83173	283.02811	736.44342	-804.41870	258.68173	633.50952	-760.20337	148.92407	573.84204	-794.69696	253.40118	569.62384	-735.33881	210.41075	537.98218	-821.70361	265.84436	491.75223	-771.67419	231.15120	202.59785	-659.83649	298.38513	156.92464	-623.15503	306.36035	158.87132	-556.55634	252.99239	163.73984	-593.04327	217.49316	173.84709	-719.00751	157.47301	220.76128	-676.49890	174.10550	161.45445	-798.60150	182.29073	182.42955	-528.14813	304.09515	146.49521	-518.02277	-72.76701	143.28656	-875.83734	-78.61740	141.14490	-882.57550	296.17014	144.72914	
